P1
# CREATOR: GIMP PNM Filter Version 1.1
90 40
0000000000000000000000000000000000000000000000000000000000000000000000
0000000000000000000000000000000000000000000000000000000000000000000000
0000000000000000000000000000000000000000000000000000000000000000000000
0000000000000000000000000000000000000000000000000000000000000000000000
0000000000000000000000000000000000000000000000000000000000000000000000
0000000000000000000011110000000000000000000111111000000000000000000000
0000000000000000000111100011000000000001111100000000000000000001111111
0000000011111101111000000000000000000001101000101000000000111111100000
0000000000000111111110000000111111111010000000000000000000011110001110
0000000011111110000000000000000011111101100000001110111111100000000000
0000000001011000111000000001111111110000000000000000111111111000000011
1111111110000000000000000000011111001010000000011011111100000000000000
0111111111110000001111100000000000000000000000000011110011100000001111
1111111000000000000011101110111100000011111000000000000000000000000000
1101001110000000111111101110000000000000111111111111000000111110000000
0000000000000000000011111111100000001111111111110000000000001110111111
1100000011011111100000000000000000000000111011111000000011111111111100
0000000001111111111111000000111101111000000000000000000000001111111010
0000001111111111110000000000011111101111010000001111111110000000000000
0000000000010110110000000011101111111110000000000101111111111100000011
1111111000000000000000000000000011111000000001111111111111100000000011
1111111111110000001111100000000000000000000000000000000000000000011111
1110111010000000011111111110111100000011111000000000000000000000000000
0000000000000001111111100111111111111110111011111111000000111110000000
0000000000000000000000000000000000011111110000111110111111111100011111
0110000011011111111000000100000000001111000000000000000111110100001111
1111110111100001110111100000111111111110000001100000000011110000000000
0000011111110000011110111111100000011111101000001111110110000000011100
0000001011000000000000000111111100000011111111110000000111111110000011
1111111000000001111000000011110000000000000011011111000000011111111000
0000011011111000000000000000000000011011000000111000000000000000111110
1100000000000000000000000111111110000000000000000000000111111000001010
0000000000000011111110000000000000000000000000111110100000000000000000
0000011111100001111000000000000000111111100000000000000000000000001111
1110000000000000000000000101101100011110000000000000001101111000000000
0000000000000000110111100000000000000000000001111111100111100000000000
0000111111100000000000000000000000001111111000000000000000000000011101
1111011110000000000000001111111000000000000000000000000011111111000000
0000000000000001010111111011100000000000000011111110000000000000000000
0000001111111100000000000000000000011100111111111000000000000001111011
0000000000000000000000000001111101000000000000000000000111000110111100
0000000000000111111100000000000000000000000000011101110000000000000000
0000011100001111110000000000000001111111000000000000000000000000000111
1110000000000000000000000111000011111000000000000000011111110000000000
0000000000000000011111000000000000000000000001110000011100000000000000
0000000000000000000000000000000000000000000000000000000000000000000000
0000000000000000000000000000000000000000000000000000000000000000000000
0000000000000000000000000000000000000000000000000000000000000000000000
0000000000000000000000000000000000000000000000000000000000000000000000
0000000000000000000000000000000000000000000000000000000000000000000000
0000000000000000000000000000000000000000000000000000000000000000000000
000000000000000000000000000000