P1
# CREATOR: GIMP PNM Filter Version 1.1
90 40
0000000000000000000000000000000000000000000000000000000000000000000000
0000000000000000000000000000000000000000000000000000000000000000000000
0000000000000000000000000000000000000000000000000000000000000000000000
0000000000000000000000000000000000000000000000000000000000000000000000
0000000000000000000000000000000000000000000000000000000000000000000000
0000000000000000000000000011111111111111000000000000000000001111111000
0000000000000000000000000000000000000000000000111111111111111000000000
0000000011111111111000000000000000000000000000000000000000000000111111
1111111111100000000000000000111111111111000000000000000000000000000000
0000000000000011111111111111111111000000000000011111111111110000000000
0000000000000000000000000000000000111111110101110111111000000000000111
1111111111000001110000000000000000000000000000000000001111111000011000
0111111111000000011111000000000000011100000000000000000000000000000000
0000111111100001100000111111110000000111110000000000001111100000000000
0000000000000000000000110001000000011000001111111100000001111100000000
0000111110001110000000000000000000000000001100110000000110000111111111
0000000111111100000000011111100011100000000000000000000000000011000111
1000000111000000111100000000001111100000001111111101111000000000000000
0000000000001100111110000001110000001111000000000001111100000011111111
1111100000000000000000000000000011110011100001111111111111100000000000
0111111000011111111111111000000000000000000000000000111110000000011111
1111111100000011110001111111000111101111111100000000000000000000000000
0000000000000000010010111111000000111110111111110001111001111111000001
1100000000000000000000000000000000000000001111000000001111111111111100
1111100111111100000111111000000000000000000000000000000000000111110000
0000111111111111110011110000111110000001111111000000000000111111111011
1000000111111110000000001111111111111100111000001111100000111111110000
0000000011111111101110000000101111000000000001111111111111001110000011
1100000111111111000000000111111111111000011000000011100001111000001111
1111110000111000000111000011111101110000000001111111111111100110000000
1110000111100000000000000000001000000001100011111111000000000000000011
1111111110011111111111100001111000000000000000000000000000010001111111
0000000000000000000000000001100111111111111000011110000000000000000000
0000000000001111110110000000000000000000011111111111100011100011001111
1000000000000000000000000000000111110011100000000000000000000011111111
1100001110001101111110000000000000000000000000000001111110111000000000
0000000000011111111111000011100011011111100000000000000000000000000000
1111111100000000000000000000001111111111111111111111110111111000000000
0000000000000000000011111111000000000000000000000110111111111111111111
1111011111100000000000000000000000000000000111110000111110000000000111
1000111111111111111111110111111000000000000000000000000000000000001100
0011111100000000111110001111111111111111100001111110000000000000000000
0000000000000111000000111111000000011111111111111111111111110000000000
0000000000000000000000000000000001111100001100110000000111111111111111
1111111111000000000000000000000000000000000000000000011111000011011100
0000011111001111111111100000000000000000000000000000000000000000000000
0001110000011101100000000111110011111111111000000000000000000000000000
0000000000000000000000011111111111000000000000000000000000000000000000
0000000000000000000000000000000000000000000111111111100000000000000000
0000000000000000000000000000000000000000000000000000000000000000001111
1000000000000000000000000000000000000000000000000000000000000000000000
000000000000000000000000000000